<?xml version="1.0" encoding="UTF-8" standalone="no"?>
<!-- Created with Inkscape (http://www.inkscape.org/) -->

<svg
   xmlns:dc="http://purl.org/dc/elements/1.1/"
   xmlns:cc="http://creativecommons.org/ns#"
   xmlns:rdf="http://www.w3.org/1999/02/22-rdf-syntax-ns#"
   xmlns:svg="http://www.w3.org/2000/svg"
   xmlns="http://www.w3.org/2000/svg"
   xmlns:sodipodi="http://sodipodi.sourceforge.net/DTD/sodipodi-0.dtd"
   xmlns:inkscape="http://www.inkscape.org/namespaces/inkscape"
   width="485"
   height="235.23047"
   id="svg2"
   version="1.1"
   inkscape:version="0.48.4 r9939"
   sodipodi:docname="now printing.svg">
  <defs
     id="defs4" />
  <sodipodi:namedview
     id="base"
     pagecolor="#ffffff"
     bordercolor="#666666"
     borderopacity="1.0"
     inkscape:pageopacity="0.0"
     inkscape:pageshadow="2"
     inkscape:zoom="1.489335"
     inkscape:cx="237.52821"
     inkscape:cy="-41.742222"
     inkscape:document-units="px"
     inkscape:current-layer="layer1"
     showgrid="false"
     fit-margin-top="0"
     fit-margin-left="0"
     fit-margin-right="0"
     fit-margin-bottom="0"
     inkscape:window-width="1301"
     inkscape:window-height="744"
     inkscape:window-x="65"
     inkscape:window-y="24"
     inkscape:window-maximized="1" />
  <metadata
     id="metadata7">
    <rdf:RDF>
      <cc:Work
         rdf:about="">
        <dc:format>image/svg+xml</dc:format>
        <dc:type
           rdf:resource="http://purl.org/dc/dcmitype/StillImage" />
      </cc:Work>
    </rdf:RDF>
  </metadata>
  <g
     inkscape:label="レイヤー 1"
     inkscape:groupmode="layer"
     id="layer1"
     transform="translate(-105.50874,-125.51269)">
    <g
       style="font-size:106.72396851px;font-style:normal;font-variant:normal;font-weight:normal;font-stretch:normal;text-align:center;line-height:125%;letter-spacing:0px;word-spacing:0px;text-anchor:middle;fill:#000000;fill-opacity:0.86666667;stroke:none;font-family:Noto Serif;-inkscape-font-specification:Noto Serif"
       id="text2985">
      <path
         d="m 292.43202,201.69943 -40.02149,-61.49135 0,49.34942 c -2e-5,1.66757 0.2258,3.00509 0.67745,4.01257 0.48635,1.00749 1.11168,1.78916 1.87601,2.34501 0.79901,0.52112 1.73701,0.86852 2.81401,1.04222 1.07694,0.17371 2.20601,0.26056 3.38723,0.26056 l 1.40701,0 0,4.48157 -26.78522,0 0,-4.48157 1.3549,0 c 1.21592,0 2.345,-0.0868 3.38723,-0.26056 1.07696,-0.1737 2.01496,-0.5211 2.81401,-1.04222 0.79903,-0.55585 1.42437,-1.33752 1.87601,-2.34501 0.45162,-1.00748 0.67743,-2.345 0.67745,-4.01257 l 0,-52.31976 c -2e-5,-1.56327 -0.2432,-2.81395 -0.72956,-3.75202 -0.45165,-0.97267 -1.07698,-1.7196 -1.87601,-2.24078 -0.79905,-0.52104 -1.73705,-0.85108 -2.81401,-0.99012 -1.04223,-0.17363 -2.15394,-0.26048 -3.33512,-0.26055 l -1.3549,0 0,-4.48158 19.54174,0 38.1976,58.99001 0,-47.26496 c -7e-5,-1.56327 -0.24325,-2.81395 -0.72956,-3.75202 -0.45169,-0.97267 -1.07703,-1.7196 -1.87601,-2.24078 -0.7991,-0.52104 -1.7371,-0.85108 -2.81401,-0.99012 -1.04228,-0.17363 -2.15399,-0.26048 -3.33512,-0.26055 l -1.40701,0 0,-4.48158 26.78522,0 0,4.48158 -1.3549,0 c -1.21601,7e-5 -2.36245,0.0869 -3.43935,0.26055 -1.04229,0.17378 -1.96293,0.53856 -2.76189,1.09434 -0.79911,0.52118 -1.42445,1.28548 -1.87601,2.2929 -0.4517,1.00755 -0.67752,2.34507 -0.67745,4.01257 l 0,64.0448 -7.60825,0"
         style=""
         id="path2986" />
      <path
         d="m 368.93142,172.9861 c -5e-5,10.04013 -2.13661,17.50941 -6.40969,22.40786 -4.23843,4.89847 -10.45704,7.3477 -18.65585,7.3477 -3.85626,0 -7.31298,-0.60797 -10.37015,-1.8239 -3.05721,-1.21593 -5.66278,-3.05719 -7.8167,-5.5238 -2.1192,-2.46659 -3.75202,-5.55852 -4.89846,-9.27581 -1.11171,-3.752 -1.66757,-8.12934 -1.66756,-13.13205 -10e-6,-9.97059 2.10181,-17.38776 6.30547,-22.25153 4.23837,-4.86367 10.49172,-7.29553 18.76007,-7.29559 3.8562,6e-5 7.31292,0.60803 10.37015,1.8239 3.05715,1.18125 5.64535,3.00514 7.76459,5.47169 2.15388,2.43191 3.7867,5.50647 4.89846,9.2237 1.14639,3.68257 1.71962,8.02518 1.71967,13.02783 m -39.50037,0 c -2e-5,3.96048 0.26054,7.45194 0.78167,10.47437 0.52109,3.02247 1.35487,5.55856 2.50134,7.60825 1.18117,2.01498 2.6924,3.54358 4.53369,4.5858 1.87598,1.04223 4.1515,1.56334 6.82658,1.56334 2.67501,0 4.93317,-0.52111 6.77447,-1.56334 1.84123,-1.04222 3.33508,-2.57082 4.48157,-4.5858 1.14641,-2.04969 1.96282,-4.58578 2.44923,-7.60825 0.52107,-3.02243 0.78163,-6.51389 0.78167,-10.47437 -4e-5,-3.96043 -0.2606,-7.43451 -0.78167,-10.42226 -0.52115,-2.98768 -1.35493,-5.47165 -2.50134,-7.45192 -1.14649,-2.01492 -2.65772,-3.52615 -4.53368,-4.53369 -1.84131,-1.00743 -4.09946,-1.51117 -6.77448,-1.51122 -2.67507,5e-5 -4.93323,0.50379 -6.77447,1.51122 -1.84128,1.00754 -3.33514,2.51877 -4.48157,4.53369 -1.14647,1.98027 -1.98025,4.46424 -2.50134,7.45192 -0.52113,2.98775 -0.78169,6.46183 -0.78167,10.42226"
         style=""
         id="path2988" />
      <path
         d="m 425.73276,144.79388 10.68282,31.63157 c 0.41683,1.28543 0.85109,2.67507 1.30278,4.1689 0.48631,1.45914 0.93794,2.91825 1.35489,4.37735 0.41683,1.42439 0.79898,2.77928 1.14645,4.06468 0.34735,1.28543 0.6079,2.37976 0.78167,3.28302 l 0.31267,0 c 0.3126,-1.77178 0.81634,-3.94308 1.51123,-6.51392 0.69475,-2.60555 1.58064,-5.628 2.65768,-9.06737 l 5.31535,-17.19673 c 0.27785,-0.90322 0.50367,-1.85859 0.67745,-2.86612 0.20837,-1.04218 0.31259,-1.85859 0.31267,-2.44923 -8e-5,-1.84122 -0.59068,-3.17874 -1.77179,-4.01257 -1.14652,-0.83373 -2.91831,-1.25062 -5.31535,-1.25068 l -0.72956,0 0,-4.48157 22.82475,0 0,4.48157 -1.35489,0 c -1.04232,6e-5 -1.94558,0.10428 -2.70979,0.31267 -0.76439,0.2085 -1.4592,0.62539 -2.08445,1.25067 -0.59068,0.59065 -1.14654,1.42443 -1.66756,2.50135 -0.5212,1.07701 -1.04231,2.50139 -1.56334,4.27312 l -13.75739,44.39884 -8.54625,0 -12.71517,-37.57225 -1.92811,-7.03503 -15.11228,44.60728 -8.44204,0 -13.96583,-47.05651 c -0.4169,-1.11166 -0.85116,-2.0323 -1.30278,-2.7619 -0.45164,-0.72951 -0.97275,-1.30273 -1.56334,-1.71968 -0.5906,-0.45158 -1.26805,-0.76424 -2.03234,-0.938 -0.7643,-0.17365 -1.66757,-0.2605 -2.70979,-0.26056 l -0.31267,0 0,-4.48157 26.36833,0 0,4.48157 -1.40701,0 c -2.11922,6e-5 -3.71729,0.31272 -4.79424,0.93801 -1.07699,0.62538 -1.61547,1.80657 -1.61545,3.54357 -2e-5,0.59064 0.0868,1.30283 0.26056,2.13656 0.20842,0.83383 0.41687,1.65024 0.62533,2.44923 l 5.00269,17.92629 c 0.34738,1.28544 0.71216,2.69244 1.09433,4.22102 0.38213,1.52862 0.72954,3.05722 1.04223,4.5858 0.34738,1.49387 0.66005,2.90087 0.938,4.22101 0.2779,1.32017 0.50372,2.43187 0.67745,3.33513 l 0.31267,0 c 0.17368,-0.90326 0.39949,-1.94548 0.67745,-3.12668 0.31263,-1.21592 0.66004,-2.50133 1.04222,-3.85624 0.41686,-1.38962 0.85112,-2.79662 1.30279,-4.22102 0.4516,-1.42435 0.90323,-2.77924 1.35489,-4.06468 l 11.09971,-32.2569 6.72236,0"
         style=""
         id="path2990" />
      <path
         d="m 105.50874,335.10439 0,-4.48157 1.35489,0 c 1.21593,0 2.34501,-0.0868 3.38724,-0.26056 1.07696,-0.1737 2.01496,-0.5211 2.81401,-1.04222 0.79903,-0.55585 1.42436,-1.33752 1.87601,-2.34501 0.45162,-1.00748 0.67743,-2.345 0.67745,-4.01257 l 0,-52.31976 c -2e-5,-1.56327 -0.2432,-2.81394 -0.72956,-3.75202 -0.45165,-0.97267 -1.07698,-1.7196 -1.87601,-2.24078 -0.79905,-0.52104 -1.73705,-0.85108 -2.81401,-0.99012 -1.04224,-0.17363 -2.15394,-0.26048 -3.33513,-0.26055 l -1.35489,0 0,-4.48158 29.96401,0 c 4.48153,8e-5 8.3725,0.52119 11.67293,1.56334 3.30033,1.00756 6.02749,2.48405 8.18148,4.42946 2.15387,1.91082 3.75195,4.23846 4.79424,6.98292 1.0769,2.74459 1.61539,5.8539 1.61545,9.32793 -6e-5,3.16147 -0.50381,6.20129 -1.51123,9.11948 -0.9728,2.91827 -2.58825,5.50646 -4.84635,7.76458 -2.25821,2.22345 -5.21118,4.01261 -8.85893,5.36747 -3.64783,1.32018 -8.11203,1.98026 -13.3926,1.98023 l -6.72236,0 0,18.03051 c -3e-5,1.56335 0.22579,2.83139 0.67744,3.80413 0.48635,0.93801 1.12906,1.65019 1.92812,2.13656 0.79901,0.48638 1.71965,0.81642 2.7619,0.99011 1.07694,0.13897 2.20602,0.20845 3.38724,0.20845 l 3.54357,0 0,4.48157 -33.19491,0 m 20.89664,-34.70613 5.68013,0 c 3.23087,3e-5 5.99276,-0.33 8.2857,-0.99012 2.29286,-0.69478 4.16886,-1.78911 5.62802,-3.28301 1.45907,-1.52856 2.51867,-3.47404 3.17879,-5.83647 0.69477,-2.39707 1.04218,-5.28056 1.04223,-8.65047 -5e-5,-2.98766 -0.29535,-5.57586 -0.8859,-7.76459 -0.59064,-2.22335 -1.54601,-4.06462 -2.86612,-5.5238 -1.32019,-1.45905 -3.03987,-2.53601 -5.15902,-3.2309 -2.08449,-0.72949 -4.63794,-1.09427 -7.66036,-1.09434 l -7.24347,0 0,36.3737"
         style=""
         id="path2992" />
      <path
         d="m 200.195,335.10439 -30.79779,0 0,-4.48157 0.31267,0 c 1.21592,0 2.345,-0.0868 3.38723,-0.26056 1.07696,-0.1737 1.9976,-0.5211 2.7619,-1.04222 0.79903,-0.55585 1.42437,-1.33752 1.87601,-2.34501 0.48636,-1.00748 0.72955,-2.345 0.72956,-4.01257 l 0,-33.29913 c -1e-5,-1.56329 -0.2432,-2.81396 -0.72956,-3.75202 -0.45164,-0.97269 -1.07698,-1.71962 -1.87601,-2.24078 -0.79905,-0.52106 -1.73705,-0.86847 -2.81401,-1.04223 -1.04223,-0.17365 -2.15394,-0.2605 -3.33512,-0.26056 l -0.31267,0 0,-4.48157 16.41506,0 2.03235,10.5786 0.52111,0 c 0.69479,-1.59803 1.40698,-3.09189 2.13656,-4.48157 0.72954,-1.42433 1.61543,-2.65763 2.65768,-3.69991 1.07694,-1.07691 2.39709,-1.91069 3.96046,-2.50134 1.56331,-0.62528 3.52616,-0.93795 5.88858,-0.938 3.89094,5e-5 6.77442,0.6775 8.65048,2.03234 1.9107,1.35495 2.86607,3.26569 2.86612,5.73224 -5e-5,1.11176 -0.19113,2.13661 -0.57323,3.07457 -0.34745,0.93805 -0.92068,1.75446 -1.71967,2.44923 -0.79909,0.66012 -1.82394,1.18123 -3.07457,1.56334 -1.25071,0.34745 -2.77931,0.52116 -4.58579,0.52111 -4e-5,-2.95293 -0.41693,-5.07212 -1.25067,-6.35758 -0.83382,-1.3201 -2.29294,-1.98018 -4.37735,-1.98023 -1.32019,5e-5 -2.50138,0.3822 -3.54357,1.14645 -1.04226,0.72961 -1.96289,1.71972 -2.7619,2.97035 -0.76433,1.21597 -1.4244,2.62298 -1.98023,4.22101 -0.52114,1.59812 -0.9554,3.24831 -1.30279,4.95058 -0.31269,1.6676 -0.5385,3.33516 -0.67744,5.00268 -0.13899,1.6676 -0.20847,3.17882 -0.20845,4.53369 l 0,16.77984 c -2e-5,1.56335 0.22579,2.83139 0.67745,3.80413 0.48635,0.93801 1.12905,1.65019 1.92812,2.13656 0.79901,0.48638 1.71964,0.81642 2.7619,0.99011 1.07694,0.13897 2.20601,0.20845 3.38723,0.20845 l 2.97035,0 0,4.48157"
         style=""
         id="path2994" />
      <path
         d="m 219.94518,330.62282 c 1.18119,0 2.2929,-0.0695 3.33513,-0.20845 1.07696,-0.17369 2.01496,-0.50373 2.81401,-0.99011 0.79903,-0.48637 1.42436,-1.19855 1.87601,-2.13656 0.48636,-0.97274 0.72954,-2.24078 0.72956,-3.80413 l 0,-33.82024 c -2e-5,-1.56329 -0.2432,-2.81396 -0.72956,-3.75202 -0.45165,-0.97269 -1.07698,-1.71962 -1.87601,-2.24078 -0.79905,-0.52106 -1.73705,-0.86847 -2.81401,-1.04223 -1.04223,-0.17365 -2.15394,-0.2605 -3.33513,-0.26056 l -0.31266,0 0,-4.48157 19.07274,0 0,45.07629 c -3e-5,1.66757 0.22579,3.00509 0.67744,4.01257 0.48635,1.00749 1.11169,1.78916 1.87601,2.34501 0.79902,0.52112 1.73702,0.86852 2.81401,1.04222 1.07694,0.17371 2.20602,0.26056 3.38724,0.26056 l 1.407,0 0,4.48157 -30.32878,0 0,-4.48157 1.407,0 m 7.24348,-70.0376 c -1e-5,-1.2506 0.15632,-2.29283 0.469,-3.12668 0.31266,-0.83371 0.74692,-1.51115 1.30278,-2.03234 0.55584,-0.52104 1.19855,-0.88582 1.92812,-1.09434 0.72954,-0.20837 1.52858,-0.31259 2.39712,-0.31267 0.83376,8e-5 1.61543,0.1043 2.34501,0.31267 0.72954,0.20852 1.35487,0.5733 1.87601,1.09434 0.55583,0.52119 0.99009,1.19863 1.30278,2.03234 0.34739,0.83385 0.52109,1.87608 0.52111,3.12668 -2e-5,1.25074 -0.17372,2.29297 -0.52111,3.12667 -0.31269,0.83386 -0.74695,1.5113 -1.30278,2.03235 -0.52114,0.52118 -1.14647,0.90333 -1.87601,1.14644 -0.72958,0.20852 -1.51125,0.31274 -2.34501,0.31267 -0.86854,7e-5 -1.66758,-0.10415 -2.39712,-0.31267 -0.72957,-0.24311 -1.37228,-0.62526 -1.92812,-1.14644 -0.55586,-0.52105 -0.99012,-1.19849 -1.30278,-2.03235 -0.31268,-0.8337 -0.46901,-1.87593 -0.469,-3.12667"
         style=""
         id="path2996" />
      <path
         d="m 281.95765,330.62282 0,4.48157 -28.71334,0 0,-4.48157 0.8859,0 c 1.21592,0 2.345,-0.0868 3.38723,-0.26056 1.07696,-0.1737 1.99759,-0.5211 2.7619,-1.04222 0.79903,-0.55585 1.42436,-1.33752 1.87601,-2.34501 0.48636,-1.00748 0.72954,-2.345 0.72956,-4.01257 l 0,-33.29913 c -2e-5,-1.56329 -0.2432,-2.81396 -0.72956,-3.75202 -0.45165,-0.97269 -1.07698,-1.71962 -1.87601,-2.24078 -0.79905,-0.52106 -1.73705,-0.86847 -2.81401,-1.04223 -1.04223,-0.17365 -2.15394,-0.2605 -3.33512,-0.26056 l -0.31267,0 0,-4.48157 17.24884,0 1.40701,8.65048 0.52111,0 c 1.11168,-1.98018 2.2755,-3.59563 3.49146,-4.84635 1.25064,-1.28536 2.55342,-2.27547 3.90835,-2.97035 1.3896,-0.7295 2.84872,-1.21587 4.37735,-1.45911 1.5633,-0.27787 3.19612,-0.41684 4.89846,-0.41689 2.81397,5e-5 5.31531,0.41694 7.50403,1.25067 2.22337,0.79909 4.09937,2.04976 5.62802,3.75201 1.56329,1.66761 2.74448,3.82155 3.54357,6.4618 0.83372,2.64035 1.25061,5.7844 1.25067,9.43215 l 0,25.22188 c -6e-5,1.66757 0.19102,3.00509 0.57323,4.01257 0.41683,1.00749 0.99005,1.78916 1.71967,2.34501 0.7295,0.52112 1.59802,0.86852 2.60557,1.04222 1.00742,0.17371 2.10175,0.26056 3.28301,0.26056 l 0.36478,0 0,4.48157 -18.60374,0 0,-36.8427 c -5e-5,-2.32759 -0.20849,-4.39467 -0.62534,-6.20124 -0.41693,-1.80648 -1.09438,-3.33508 -2.03234,-4.5858 -0.9033,-1.25062 -2.10186,-2.18862 -3.59568,-2.81401 -1.4939,-0.66002 -3.31779,-0.99006 -5.47169,-0.99011 -2.43189,5e-5 -4.4816,0.46905 -6.14913,1.407 -1.63285,0.93806 -2.953,2.2061 -3.96046,3.80413 -1.00751,1.59812 -1.73707,3.43939 -2.18868,5.5238 -0.41691,2.08449 -0.62535,4.27316 -0.62533,6.56602 l 0,22.51209 c -2e-5,1.56335 0.22579,2.83139 0.67745,3.80413 0.48634,0.93801 1.12905,1.65019 1.92811,2.13656 0.79902,0.48638 1.71965,0.81642 2.7619,0.99011 1.07694,0.13897 2.20602,0.20845 3.38724,0.20845 l 0.31267,0"
         style=""
         id="path2998" />
      <path
         d="m 347.35735,330.5186 c 1.28539,0 2.46657,-0.0695 3.54357,-0.20845 1.07694,-0.13896 2.17127,-0.31266 3.28301,-0.52111 l 0,4.69002 c -0.45166,0.20844 -1.04226,0.41689 -1.77178,0.62533 -0.72959,0.20845 -1.52863,0.38215 -2.39712,0.52112 -0.83381,0.1737 -1.7197,0.29529 -2.65768,0.36478 -0.93803,0.10422 -1.82392,0.15633 -2.65767,0.15633 -2.70982,0 -5.03745,-0.2953 -6.98292,-0.88589 -1.94551,-0.55586 -3.54358,-1.47649 -4.79424,-2.7619 -1.25069,-1.28541 -2.18869,-2.98771 -2.81401,-5.10691 -0.59061,-2.11918 -0.8859,-4.70738 -0.88589,-7.76459 l 0,-35.64413 -8.12937,0 0,-4.27313 c 1.28541,5e-5 2.69241,-0.2605 4.22102,-0.78167 1.56333,-0.52106 2.93559,-1.38958 4.11679,-2.60557 1.21592,-1.32009 2.18866,-2.88343 2.91823,-4.69002 0.76429,-1.8412 1.42437,-4.13409 1.98023,-6.87869 l 4.89847,0 0,13.13205 13.96583,0 0,6.09703 -13.96583,0 0,35.9568 c -2e-5,3.6478 0.72954,6.32285 2.18867,8.02514 1.49384,1.70231 3.47406,2.55346 5.94069,2.55346"
         style=""
         id="path3000" />
      <path
         d="m 360.43729,330.62282 c 1.18118,0 2.29289,-0.0695 3.33512,-0.20845 1.07696,-0.17369 2.01496,-0.50373 2.81401,-0.99011 0.79903,-0.48637 1.42437,-1.19855 1.87601,-2.13656 0.48636,-0.97274 0.72955,-2.24078 0.72956,-3.80413 l 0,-33.82024 c -10e-6,-1.56329 -0.2432,-2.81396 -0.72956,-3.75202 -0.45164,-0.97269 -1.07698,-1.71962 -1.87601,-2.24078 -0.79905,-0.52106 -1.73705,-0.86847 -2.81401,-1.04223 -1.04223,-0.17365 -2.15394,-0.2605 -3.33512,-0.26056 l -0.31267,0 0,-4.48157 19.07274,0 0,45.07629 c -2e-5,1.66757 0.22579,3.00509 0.67745,4.01257 0.48635,1.00749 1.11168,1.78916 1.87601,2.34501 0.79901,0.52112 1.73701,0.86852 2.81401,1.04222 1.07693,0.17371 2.20601,0.26056 3.38723,0.26056 l 1.40701,0 0,4.48157 -30.32879,0 0,-4.48157 1.40701,0 m 7.24347,-70.0376 c -1e-5,-1.2506 0.15632,-2.29283 0.469,-3.12668 0.31266,-0.83371 0.74692,-1.51115 1.30279,-2.03234 0.55584,-0.52104 1.19854,-0.88582 1.92811,-1.09434 0.72955,-0.20837 1.52859,-0.31259 2.39712,-0.31267 0.83377,8e-5 1.61544,0.1043 2.34501,0.31267 0.72954,0.20852 1.35488,0.5733 1.87601,1.09434 0.55583,0.52119 0.99009,1.19863 1.30278,2.03234 0.34739,0.83385 0.52109,1.87608 0.52112,3.12668 -3e-5,1.25074 -0.17373,2.29297 -0.52112,3.12667 -0.31269,0.83386 -0.74695,1.5113 -1.30278,2.03235 -0.52113,0.52118 -1.14647,0.90333 -1.87601,1.14644 -0.72957,0.20852 -1.51124,0.31274 -2.34501,0.31267 -0.86853,7e-5 -1.66757,-0.10415 -2.39712,-0.31267 -0.72957,-0.24311 -1.37227,-0.62526 -1.92811,-1.14644 -0.55587,-0.52105 -0.99013,-1.19849 -1.30279,-2.03235 -0.31268,-0.8337 -0.46901,-1.87593 -0.469,-3.12667"
         style=""
         id="path3002" />
      <path
         d="m 422.44976,330.62282 0,4.48157 -28.71334,0 0,-4.48157 0.8859,0 c 1.21592,0 2.345,-0.0868 3.38723,-0.26056 1.07696,-0.1737 1.99759,-0.5211 2.7619,-1.04222 0.79903,-0.55585 1.42437,-1.33752 1.87601,-2.34501 0.48636,-1.00748 0.72954,-2.345 0.72956,-4.01257 l 0,-33.29913 c -2e-5,-1.56329 -0.2432,-2.81396 -0.72956,-3.75202 -0.45164,-0.97269 -1.07698,-1.71962 -1.87601,-2.24078 -0.79905,-0.52106 -1.73705,-0.86847 -2.81401,-1.04223 -1.04223,-0.17365 -2.15394,-0.2605 -3.33512,-0.26056 l -0.31267,0 0,-4.48157 17.24884,0 1.40701,8.65048 0.52111,0 c 1.11169,-1.98018 2.2755,-3.59563 3.49146,-4.84635 1.25064,-1.28536 2.55343,-2.27547 3.90835,-2.97035 1.3896,-0.7295 2.84872,-1.21587 4.37735,-1.45911 1.5633,-0.27787 3.19612,-0.41684 4.89846,-0.41689 2.81397,5e-5 5.31531,0.41694 7.50403,1.25067 2.22337,0.79909 4.09937,2.04976 5.62802,3.75201 1.56329,1.66761 2.74448,3.82155 3.54357,6.4618 0.83373,2.64035 1.25062,5.7844 1.25067,9.43215 l 0,25.22188 c -5e-5,1.66757 0.19102,3.00509 0.57323,4.01257 0.41683,1.00749 0.99005,1.78916 1.71967,2.34501 0.7295,0.52112 1.59802,0.86852 2.60557,1.04222 1.00742,0.17371 2.10176,0.26056 3.28301,0.26056 l 0.36478,0 0,4.48157 -18.60374,0 0,-36.8427 c -5e-5,-2.32759 -0.20849,-4.39467 -0.62534,-6.20124 -0.41693,-1.80648 -1.09438,-3.33508 -2.03234,-4.5858 -0.9033,-1.25062 -2.10186,-2.18862 -3.59568,-2.81401 -1.49389,-0.66002 -3.31779,-0.99006 -5.47169,-0.99011 -2.43189,5e-5 -4.4816,0.46905 -6.14913,1.407 -1.63285,0.93806 -2.953,2.2061 -3.96046,3.80413 -1.00751,1.59812 -1.73707,3.43939 -2.18868,5.5238 -0.41691,2.08449 -0.62535,4.27316 -0.62533,6.56602 l 0,22.51209 c -2e-5,1.56335 0.22579,2.83139 0.67745,3.80413 0.48634,0.93801 1.12905,1.65019 1.92811,2.13656 0.79902,0.48638 1.71965,0.81642 2.7619,0.99011 1.07694,0.13897 2.20602,0.20845 3.38724,0.20845 l 0.31267,0"
         style=""
         id="path3004" />
      <path
         d="m 515.67689,280.12696 c -6e-5,0.76435 -0.12165,1.49391 -0.36478,2.18867 -0.2085,0.66013 -0.53854,1.25073 -0.99011,1.77179 -0.45169,0.48642 -1.04228,0.88594 -1.77179,1.19856 -0.69487,0.27797 -1.52865,0.41694 -2.50134,0.41689 -5e-5,-0.41684 -0.0522,-0.83373 -0.15634,-1.25067 -0.10427,-0.41684 -0.29534,-0.79899 -0.57322,-1.14645 -0.24324,-0.3821 -0.59064,-0.6774 -1.04223,-0.88589 -0.45168,-0.24314 -1.04227,-0.36473 -1.77178,-0.36478 -0.90331,5e-5 -1.71972,0.10427 -2.44923,0.31266 -0.72961,0.2085 -1.44179,0.53854 -2.13657,0.99012 1.21589,1.49391 2.206,3.26569 2.97035,5.31535 0.79899,2.01502 1.19851,4.5511 1.19856,7.60826 -5e-5,2.64034 -0.39957,5.08957 -1.19856,7.34769 -0.79909,2.22345 -1.99765,4.15156 -3.59568,5.78436 -1.56338,1.63284 -3.56098,2.91825 -5.9928,3.85623 -2.39716,0.90329 -5.21117,1.35492 -8.44204,1.3549 -0.41691,2e-5 -0.88592,2e-5 -1.407,0 -0.52114,-0.0347 -1.04225,-0.0521 -1.56334,-0.0521 -0.52114,-0.0347 -1.00751,-0.0695 -1.45912,-0.10423 -0.45165,-0.0695 -0.81643,-0.12157 -1.09434,-0.15633 -0.69483,0.34743 -1.35491,0.72958 -1.98023,1.14645 -0.62535,0.41691 -1.1812,0.88591 -1.66756,1.407 -0.45165,0.52113 -0.81643,1.11173 -1.09433,1.77179 -0.27795,0.66009 -0.41691,1.38965 -0.4169,2.18867 -1e-5,0.86854 0.15632,1.56336 0.46901,2.08446 0.34739,0.52112 0.81639,0.93801 1.407,1.25067 0.59058,0.27793 1.28539,0.46901 2.08445,0.57322 0.83376,0.0695 1.71966,0.10423 2.65768,0.10422 l 12.08983,0 c 3.19612,10e-6 5.9059,0.39953 8.12936,1.19856 2.22337,0.79905 4.02989,1.91076 5.41958,3.33513 1.42432,1.38964 2.44918,3.07457 3.07456,5.0548 0.66003,1.94548 0.99007,4.06467 0.99012,6.35758 -5e-5,3.05718 -0.57328,5.81908 -1.71967,8.28569 -1.11176,2.46659 -2.83143,4.55104 -5.15902,6.25336 -2.32769,1.73702 -5.28066,3.07455 -8.85893,4.01257 -3.5436,0.93798 -7.72987,1.40698 -12.55882,1.40701 -7.43457,-3e-5 -12.9931,-1.37229 -16.67562,-4.11679 -3.68254,-2.74455 -5.5238,-6.56605 -5.5238,-11.46449 0,-2.08446 0.36477,-3.90836 1.09434,-5.47169 0.72955,-1.56334 1.70229,-2.90087 2.91823,-4.01257 1.25066,-1.11171 2.67504,-2.01497 4.27313,-2.70979 1.59806,-0.69482 3.28299,-1.19856 5.05479,-1.51123 -0.72957,-0.31266 -1.44176,-0.72955 -2.13656,-1.25067 -0.69483,-0.52111 -1.32017,-1.14644 -1.87601,-1.87601 -0.55586,-0.72955 -1.00749,-1.56333 -1.35489,-2.50134 -0.34742,-0.93799 -0.52112,-1.98022 -0.52111,-3.12668 -10e-6,-2.11918 0.55584,-3.94307 1.66756,-5.47169 1.11169,-1.56332 2.88348,-3.07454 5.31535,-4.53368 -1.52861,-0.62531 -2.90088,-1.47646 -4.11679,-2.55346 -1.1812,-1.11168 -2.18869,-2.36235 -3.02246,-3.75201 -0.79905,-1.42435 -1.42438,-2.97031 -1.87601,-4.63791 -0.41689,-1.66752 -0.62534,-3.3872 -0.62533,-5.15902 -10e-6,-3.09189 0.41688,-5.85379 1.25067,-8.2857 0.83377,-2.43181 2.08444,-4.49889 3.75201,-6.20124 1.66755,-1.70225 3.752,-3.00503 6.25336,-3.90835 2.50132,-0.90321 5.43692,-1.35484 8.80681,-1.35489 1.28539,5e-5 2.55343,0.10428 3.80413,0.31266 1.25064,0.17377 2.39709,0.43432 3.43935,0.78167 1.07693,0.31273 2.0323,0.67751 2.86612,1.09434 0.86848,0.41695 1.5633,0.85121 2.08445,1.30278 0.52107,-0.5558 1.12904,-1.16376 1.8239,-1.82389 0.69477,-0.69476 1.47644,-1.3201 2.34501,-1.87601 0.86847,-0.59054 1.80648,-1.07691 2.81401,-1.45912 1.04218,-0.38209 2.15388,-0.57316 3.33512,-0.57322 1.07692,6e-5 1.99755,0.15639 2.7619,0.469 0.79899,0.27799 1.45906,0.67751 1.98023,1.19856 0.52106,0.48643 0.90321,1.07703 1.14645,1.77179 0.27787,0.66013 0.41683,1.35495 0.41689,2.08445 m -45.02417,64.35747 c -2e-5,1.56333 0.20843,3.02244 0.62533,4.37735 0.41688,1.35488 1.14644,2.5187 2.18868,3.49146 1.04221,0.97272 2.44921,1.73702 4.22101,2.2929 1.77177,0.55583 4.01255,0.83376 6.72236,0.83378 3.82147,-2e-5 6.96552,-0.33006 9.43215,-0.99012 2.50131,-0.62535 4.48153,-1.51124 5.94069,-2.65768 1.45907,-1.14646 2.48393,-2.51872 3.07457,-4.11679 0.59055,-1.56335 0.88584,-3.28302 0.88589,-5.15902 -5e-5,-1.63283 -0.24323,-2.98772 -0.72956,-4.06468 -0.45167,-1.04223 -1.14649,-1.87601 -2.08445,-2.50134 -0.90331,-0.5906 -2.03238,-1.00749 -3.38724,-1.25068 -1.35493,-0.24318 -2.91827,-0.36477 -4.69002,-0.36478 l -10.47437,0 c -1.49388,1e-5 -2.95299,0.13897 -4.37735,0.4169 -1.38965,0.24318 -2.64032,0.72955 -3.75201,1.45911 -1.07698,0.72956 -1.94551,1.75441 -2.60557,3.07457 -0.66009,1.32015 -0.99013,3.03982 -0.99011,5.15902 m 6.20124,-48.20296 c -2e-5,4.55108 0.74691,7.8862 2.24079,10.00537 1.52858,2.11922 4.01255,3.17881 7.45192,3.17879 1.73701,2e-5 3.19613,-0.26053 4.37735,-0.78167 1.21589,-0.52109 2.20601,-1.32013 2.97034,-2.39712 0.76427,-1.07694 1.30275,-2.4492 1.61545,-4.1168 0.34737,-1.70226 0.52108,-3.71723 0.52111,-6.04491 -3e-5,-4.7942 -0.72959,-8.33776 -2.18867,-10.63071 -1.45915,-2.29284 -3.92575,-3.43929 -7.39981,-3.43934 -3.43937,5e-5 -5.90597,1.18124 -7.3998,3.54357 -1.45914,2.32768 -2.1887,5.88862 -2.18868,10.68282"
         style=""
         id="path3006" />
      <path
         d="m 523.70203,328.59048 c -1e-5,-1.38963 0.17369,-2.53608 0.52111,-3.43935 0.3474,-0.93799 0.8164,-1.68492 1.407,-2.24078 0.62533,-0.55585 1.33752,-0.95537 2.13657,-1.19856 0.83377,-0.24318 1.71966,-0.36477 2.65768,-0.36478 0.90324,10e-6 1.75439,0.1216 2.55345,0.36478 0.83376,0.24319 1.54595,0.64271 2.13656,1.19856 0.62532,0.55586 1.11169,1.30279 1.45912,2.24078 0.38213,0.90327 0.5732,2.04972 0.57322,3.43935 -2e-5,1.3549 -0.19109,2.50135 -0.57322,3.43935 -0.34743,0.938 -0.8338,1.68493 -1.45912,2.24078 -0.59061,0.55586 -1.3028,0.95538 -2.13656,1.19856 -0.79906,0.24319 -1.65021,0.36478 -2.55345,0.36478 -0.93802,0 -1.82391,-0.12159 -2.65768,-0.36478 -0.79905,-0.24318 -1.51124,-0.6427 -2.13657,-1.19856 -0.5906,-0.55585 -1.0596,-1.30278 -1.407,-2.24078 -0.34742,-0.938 -0.52112,-2.08445 -0.52111,-3.43935"
         style=""
         id="path3008" />
      <path
         d="m 550.38303,328.59048 c -10e-6,-1.38963 0.17369,-2.53608 0.52111,-3.43935 0.3474,-0.93799 0.8164,-1.68492 1.407,-2.24078 0.62533,-0.55585 1.33752,-0.95537 2.13657,-1.19856 0.83377,-0.24318 1.71966,-0.36477 2.65768,-0.36478 0.90324,10e-6 1.75439,0.1216 2.55345,0.36478 0.83376,0.24319 1.54595,0.64271 2.13656,1.19856 0.62532,0.55586 1.11169,1.30279 1.45912,2.24078 0.38213,0.90327 0.5732,2.04972 0.57322,3.43935 -2e-5,1.3549 -0.19109,2.50135 -0.57322,3.43935 -0.34743,0.938 -0.8338,1.68493 -1.45912,2.24078 -0.59061,0.55586 -1.3028,0.95538 -2.13656,1.19856 -0.79906,0.24319 -1.65021,0.36478 -2.55345,0.36478 -0.93802,0 -1.82391,-0.12159 -2.65768,-0.36478 -0.79905,-0.24318 -1.51124,-0.6427 -2.13657,-1.19856 -0.5906,-0.55585 -1.0596,-1.30278 -1.407,-2.24078 -0.34742,-0.938 -0.52112,-2.08445 -0.52111,-3.43935"
         style=""
         id="path3010" />
      <path
         d="m 577.06403,328.59048 c -10e-6,-1.38963 0.17369,-2.53608 0.52111,-3.43935 0.3474,-0.93799 0.8164,-1.68492 1.407,-2.24078 0.62533,-0.55585 1.33752,-0.95537 2.13657,-1.19856 0.83377,-0.24318 1.71966,-0.36477 2.65768,-0.36478 0.90324,10e-6 1.75439,0.1216 2.55345,0.36478 0.83376,0.24319 1.54595,0.64271 2.13656,1.19856 0.62532,0.55586 1.11169,1.30279 1.45912,2.24078 0.38213,0.90327 0.5732,2.04972 0.57322,3.43935 -2e-5,1.3549 -0.19109,2.50135 -0.57322,3.43935 -0.34743,0.938 -0.8338,1.68493 -1.45912,2.24078 -0.59061,0.55586 -1.3028,0.95538 -2.13656,1.19856 -0.79906,0.24319 -1.65021,0.36478 -2.55345,0.36478 -0.93802,0 -1.82391,-0.12159 -2.65768,-0.36478 -0.79905,-0.24318 -1.51124,-0.6427 -2.13657,-1.19856 -0.5906,-0.55585 -1.0596,-1.30278 -1.407,-2.24078 -0.34742,-0.938 -0.52112,-2.08445 -0.52111,-3.43935"
         style=""
         id="path3012" />
    </g>
  </g>
</svg>
