<?xml version="1.0" encoding="UTF-8" standalone="no"?>
<svg
   xmlns:dc="http://purl.org/dc/elements/1.1/"
   xmlns:cc="http://creativecommons.org/ns#"
   xmlns:rdf="http://www.w3.org/1999/02/22-rdf-syntax-ns#"
   xmlns:svg="http://www.w3.org/2000/svg"
   xmlns="http://www.w3.org/2000/svg"
   xmlns:xlink="http://www.w3.org/1999/xlink"
   xmlns:sodipodi="http://sodipodi.sourceforge.net/DTD/sodipodi-0.dtd"
   xmlns:inkscape="http://www.inkscape.org/namespaces/inkscape"
   width="87.731422mm"
   height="11.28892mm"
   viewBox="0 0 310.85937 40.000112"
   id="svg2"
   version="1.1"
   inkscape:version="0.91 r13725"
   sodipodi:docname="logo.svg">
  <sodipodi:namedview
     pagecolor="#ffffff"
     bordercolor="#666666"
     borderopacity="1"
     objecttolerance="10"
     gridtolerance="10"
     guidetolerance="10"
     inkscape:pageopacity="0"
     inkscape:pageshadow="2"
     inkscape:window-width="1309"
     inkscape:window-height="747"
     id="namedview4219"
     showgrid="false"
     fit-margin-top="0"
     fit-margin-left="0"
     fit-margin-right="0"
     fit-margin-bottom="0"
     inkscape:zoom="3.1144284"
     inkscape:cx="113.71245"
     inkscape:cy="32.843478"
     inkscape:window-x="57"
     inkscape:window-y="21"
     inkscape:window-maximized="1"
     inkscape:current-layer="svg2" />
  <defs
     id="defs4">
    <linearGradient
       x1="260"
       y1="292.36218"
       x2="285"
       y2="352.2691"
       id="linearGradient3803"
       xlink:href="#linearGradient3794"
       gradientUnits="userSpaceOnUse"
       gradientTransform="matrix(1,0,0,0.83398006,-259.9375,-192.35692)" />
    <linearGradient
       id="linearGradient3794">
      <stop
         id="stop3796"
         style="stop-color:#37f688;stop-opacity:1"
         offset="0" />
      <stop
         id="stop3798"
         style="stop-color:#1f8c4d;stop-opacity:1"
         offset="1" />
    </linearGradient>
    <linearGradient
       x1="335"
       y1="352.43979"
       x2="360"
       y2="292.43979"
       id="linearGradient3801"
       xlink:href="#linearGradient3833"
       gradientUnits="userSpaceOnUse"
       gradientTransform="matrix(1,0,0,0.83333331,-259.9375,-192.27132)" />
    <linearGradient
       id="linearGradient3833">
      <stop
         id="stop3835"
         style="stop-color:#bfbfbf;stop-opacity:1"
         offset="0" />
      <stop
         id="stop3837"
         style="stop-color:#f2f2f2;stop-opacity:1"
         offset="1" />
    </linearGradient>
  </defs>
  <metadata
     id="metadata7">
    <rdf:RDF>
      <cc:Work
         rdf:about="">
        <dc:format>image/svg+xml</dc:format>
        <dc:type
           rdf:resource="http://purl.org/dc/dcmitype/StillImage" />
        <dc:title></dc:title>
      </cc:Work>
    </rdf:RDF>
  </metadata>
  <g
     id="layer1"
     transform="translate(-401.06586,-236.25721)">
    <g
       id="text3336"
       style="font-style:normal;font-weight:normal;font-size:40px;line-height:125%;font-family:sans-serif;letter-spacing:0px;word-spacing:0px;fill:#000000;fill-opacity:1;stroke:none;stroke-width:1px;stroke-linecap:butt;stroke-linejoin:miter;stroke-opacity:1">
      <path
         id="path3337"
         style="font-style:normal;font-variant:normal;font-weight:normal;font-stretch:normal;font-family:'Noto Serif';-inkscape-font-specification:'Noto Serif'"
         d="m 468.76117,238.36667 5,17.32422 q 0.56641,1.99218 0.99609,3.82812 0.44922,1.81641 0.72266,3.20313 0.29297,-1.44532 0.66406,-3.02735 0.39063,-1.60156 0.9375,-3.53515 l 3.51563,-12.34375 q 0.0586,-0.23438 0.13672,-0.52735 0.0781,-0.29297 0.13671,-0.58593 0.0586,-0.29297 0.0977,-0.54688 0.0586,-0.25391 0.0586,-0.42969 0,-1.03515 -0.66406,-1.48437 -0.64453,-0.46875 -1.97265,-0.46875 l -0.91797,0 0,-1.67969 9.76562,0 0,1.67969 -0.76172,0 q -0.58593,0 -1.03515,0.11719 -0.42969,0.11718 -0.78125,0.44921 -0.35157,0.33204 -0.64453,0.9375 -0.29297,0.60547 -0.58594,1.60157 l -6.75781,23.76953 -3.59375,0 -6.52344,-22.40235 -6.11328,22.40235 -3.69141,0 -7.32422,-24.76563 q -0.19531,-0.625 -0.44922,-1.03515 -0.23437,-0.41016 -0.5664,-0.64453 -0.33203,-0.23438 -0.78125,-0.33204 -0.44922,-0.0976 -1.03516,-0.0976 l -0.52734,0 0,-1.67969 11.01562,0 0,1.67969 -0.91797,0 q -1.21093,0 -1.8164,0.46875 -0.58594,0.44922 -0.58594,1.44531 0,0.33203 0.0977,0.68359 0.0976,0.35157 0.21484,0.80079 l 3.67187,12.79296 q 0.50782,1.81641 0.95704,3.57422 0.44921,1.73828 0.78125,3.1836 0.29296,-1.5625 0.68359,-3.39844 0.41016,-1.85547 0.9375,-3.78906 l 4.76562,-17.16797 2.89063,0 z"
         inkscape:connector-curvature="0" />
      <path
         id="path3339"
         style="font-style:normal;font-variant:normal;font-weight:normal;font-stretch:normal;font-family:'Noto Serif';-inkscape-font-specification:'Noto Serif'"
         d="m 500.46039,266.64792 -11.54297,0 0,-1.67969 0.11719,0 q 0.68359,0 1.26953,-0.0977 0.60547,-0.0976 1.03515,-0.39062 0.44922,-0.3125 0.70313,-0.87891 0.27344,-0.5664 0.27344,-1.5039 l 0,-12.48047 q 0,-0.87891 -0.27344,-1.40625 -0.25391,-0.54688 -0.70313,-0.83985 -0.44921,-0.29296 -1.05468,-0.39062 -0.58594,-0.0977 -1.25,-0.0977 l -0.11719,0 0,-1.67968 6.15234,0 0.76172,3.96484 0.19531,0 q 0.39063,-0.89844 0.80079,-1.67969 0.41015,-0.80078 0.99609,-1.38672 0.60547,-0.60547 1.48437,-0.9375 0.87891,-0.35156 2.20704,-0.35156 2.1875,0 3.24218,0.76172 1.07422,0.76172 1.07422,2.14844 0,0.625 -0.21484,1.15234 -0.19531,0.52734 -0.64453,0.91797 -0.44922,0.37109 -1.15235,0.58594 -0.70312,0.19531 -1.71875,0.19531 0,-1.66016 -0.46875,-2.38281 -0.46875,-0.74219 -1.64062,-0.74219 -0.74219,0 -1.32813,0.42969 -0.58593,0.41015 -1.03515,1.11328 -0.42969,0.68359 -0.74219,1.58203 -0.29297,0.89844 -0.48828,1.85547 -0.17578,0.9375 -0.25391,1.875 -0.0781,0.9375 -0.0781,1.69922 l 0,6.28906 q 0,0.87891 0.2539,1.42578 0.27344,0.52734 0.72266,0.80078 0.44922,0.27344 1.03516,0.3711 0.60546,0.0781 1.26953,0.0781 l 1.11328,0 0,1.67969 z"
         inkscape:connector-curvature="0" />
      <path
         id="path3341"
         style="font-style:normal;font-variant:normal;font-weight:normal;font-stretch:normal;font-family:'Noto Serif';-inkscape-font-specification:'Noto Serif'"
         d="m 507.86273,264.96823 q 0.66406,0 1.25,-0.0781 0.60547,-0.0977 1.05469,-0.3711 0.44922,-0.27344 0.70312,-0.80078 0.27344,-0.54687 0.27344,-1.42578 l 0,-12.67578 q 0,-0.87891 -0.27344,-1.40625 -0.2539,-0.54688 -0.70312,-0.83985 -0.44922,-0.29296 -1.05469,-0.39062 -0.58594,-0.0977 -1.25,-0.0977 l -0.11719,0 0,-1.67968 7.14844,0 0,16.89453 q 0,0.9375 0.25391,1.5039 0.27344,0.56641 0.70312,0.87891 0.44922,0.29297 1.05469,0.39062 0.60547,0.0977 1.26953,0.0977 l 0.52735,0 0,1.67969 -11.36719,0 0,-1.67969 0.52734,0 z m 2.71485,-26.25 q 0,-0.70312 0.17578,-1.17187 0.17578,-0.46875 0.48828,-0.76172 0.3125,-0.29297 0.72265,-0.41016 0.41016,-0.11719 0.89844,-0.11719 0.46875,0 0.87891,0.11719 0.41015,0.11719 0.70312,0.41016 0.3125,0.29297 0.48828,0.76172 0.19532,0.46875 0.19532,1.17187 0,0.70313 -0.19532,1.17188 -0.17578,0.46875 -0.48828,0.76171 -0.29297,0.29297 -0.70312,0.42969 -0.41016,0.11719 -0.87891,0.11719 -0.48828,0 -0.89844,-0.11719 -0.41015,-0.13672 -0.72265,-0.42969 -0.3125,-0.29296 -0.48828,-0.76171 -0.17578,-0.46875 -0.17578,-1.17188 z"
         inkscape:connector-curvature="0" />
      <path
         id="path3343"
         style="font-style:normal;font-variant:normal;font-weight:normal;font-stretch:normal;font-family:'Noto Serif';-inkscape-font-specification:'Noto Serif'"
         d="m 529.83539,264.92917 q 0.72265,0 1.32812,-0.0781 0.60547,-0.0781 1.23047,-0.19531 l 0,1.75781 q -0.2539,0.11719 -0.66406,0.23438 -0.41016,0.11719 -0.89844,0.19531 -0.46875,0.0977 -0.99609,0.13672 -0.52735,0.0586 -0.9961,0.0586 -1.52343,0 -2.61718,-0.33203 -1.09375,-0.3125 -1.79688,-1.03515 -0.70312,-0.72266 -1.05469,-1.91407 -0.33203,-1.1914 -0.33203,-2.91015 l 0,-13.35938 -3.04687,0 0,-1.60156 q 0.72265,0 1.58203,-0.29297 0.87891,-0.29297 1.54297,-0.97656 0.68359,-0.74219 1.09375,-1.75781 0.42969,-1.03516 0.74219,-2.57813 l 1.83593,0 0,4.92188 5.23438,0 0,2.28515 -5.23438,0 0,13.47656 q 0,2.05079 0.82032,3.00782 0.83984,0.95703 2.22656,0.95703 z"
         inkscape:connector-curvature="0" />
      <path
         id="path3345"
         style="font-style:normal;font-variant:normal;font-weight:normal;font-stretch:normal;font-family:'Noto Serif';-inkscape-font-specification:'Noto Serif'"
         d="m 544.28851,246.96042 q -2.22656,0 -3.4375,1.8164 -1.1914,1.79688 -1.40625,5.27344 l 9.19922,0 q 0,-1.58203 -0.23437,-2.89062 -0.23438,-1.3086 -0.74219,-2.2461 -0.50781,-0.9375 -1.34766,-1.44531 -0.82031,-0.50781 -2.03125,-0.50781 z m 0.48828,20.07812 q -2.16796,0 -3.90625,-0.72265 -1.71875,-0.74219 -2.91015,-2.14844 -1.19141,-1.40625 -1.83594,-3.4375 -0.625,-2.05078 -0.625,-4.64844 0,-5.60547 2.30469,-8.4375 2.30469,-2.83203 6.5625,-2.83203 1.93359,0 3.47656,0.60547 1.54297,0.60547 2.61719,1.81641 1.07422,1.1914 1.64062,2.98828 0.58594,1.77734 0.58594,4.14062 l 0,1.83594 -13.32031,0 q 0.0391,2.1875 0.42969,3.76953 0.41015,1.5625 1.15234,2.57813 0.76172,1.01562 1.85547,1.5039 1.09375,0.46875 2.51953,0.46875 1.03516,0 1.91406,-0.23437 0.89844,-0.23438 1.6211,-0.625 0.72265,-0.39063 1.26953,-0.87891 0.5664,-0.50781 0.91797,-1.05469 0.27343,0.11719 0.50781,0.48828 0.2539,0.3711 0.2539,0.87891 0,0.60547 -0.42968,1.30859 -0.42969,0.6836 -1.3086,1.26954 -0.8789,0.58593 -2.20703,0.97656 -1.30859,0.39062 -3.08594,0.39062 z"
         inkscape:connector-curvature="0" />
      <path
         id="path3347"
         style="font-style:normal;font-variant:normal;font-weight:normal;font-stretch:normal;font-family:'Noto Serif';-inkscape-font-specification:'Noto Serif'"
         d="m 567.56976,266.64792 -11.54297,0 0,-1.67969 0.11719,0 q 0.6836,0 1.26953,-0.0977 0.60547,-0.0976 1.03516,-0.39062 0.44922,-0.3125 0.70312,-0.87891 0.27344,-0.5664 0.27344,-1.5039 l 0,-12.48047 q 0,-0.87891 -0.27344,-1.40625 -0.2539,-0.54688 -0.70312,-0.83985 -0.44922,-0.29296 -1.05469,-0.39062 -0.58594,-0.0977 -1.25,-0.0977 l -0.11719,0 0,-1.67968 6.15235,0 0.76172,3.96484 0.19531,0 q 0.39062,-0.89844 0.80078,-1.67969 0.41016,-0.80078 0.99609,-1.38672 0.60547,-0.60547 1.48438,-0.9375 0.87891,-0.35156 2.20703,-0.35156 2.1875,0 3.24219,0.76172 1.07422,0.76172 1.07422,2.14844 0,0.625 -0.21485,1.15234 -0.19531,0.52734 -0.64453,0.91797 -0.44922,0.37109 -1.15234,0.58594 -0.70313,0.19531 -1.71875,0.19531 0,-1.66016 -0.46875,-2.38281 -0.46875,-0.74219 -1.64063,-0.74219 -0.74218,0 -1.32812,0.42969 -0.58594,0.41015 -1.03516,1.11328 -0.42969,0.68359 -0.74219,1.58203 -0.29296,0.89844 -0.48828,1.85547 -0.17578,0.9375 -0.2539,1.875 -0.0781,0.9375 -0.0781,1.69922 l 0,6.28906 q 0,0.87891 0.25391,1.42578 0.27344,0.52734 0.72265,0.80078 0.44922,0.27344 1.03516,0.3711 0.60547,0.0781 1.26953,0.0781 l 1.11328,0 0,1.67969 z"
         inkscape:connector-curvature="0" />
      <path
         id="path3349"
         style="font-style:normal;font-variant:normal;font-weight:normal;font-stretch:normal;font-family:'Noto Serif';-inkscape-font-specification:'Noto Serif'"
         d="m 575.05023,266.64792 0,-1.67969 0.50781,0 q 0.6836,0 1.26954,-0.0977 0.60546,-0.0976 1.05468,-0.39062 0.44922,-0.3125 0.70313,-0.87891 0.2539,-0.5664 0.2539,-1.5039 l 0,-19.45313 q 0,-0.9375 -0.2539,-1.5039 -0.25391,-0.56641 -0.70313,-0.85938 -0.44922,-0.3125 -1.05468,-0.41016 -0.58594,-0.0976 -1.26954,-0.0976 l -0.50781,0 0,-1.67969 11.64063,0 0,1.67969 -0.52735,0 q -0.66406,0 -1.26953,0.0976 -0.58594,0.0781 -1.03515,0.3711 -0.44922,0.29297 -0.72266,0.83984 -0.25391,0.52735 -0.25391,1.40625 l 0,22.16797 7.89063,0 q 0.89844,0 1.52344,-0.3125 0.64453,-0.33203 1.05468,-0.83984 0.41016,-0.52735 0.625,-1.17188 0.23438,-0.64453 0.3125,-1.28906 l 0.39063,-2.98828 2.08984,0 -0.27344,8.59375 -21.44531,0 z"
         inkscape:connector-curvature="0" />
      <path
         id="path3351"
         style="font-style:normal;font-variant:normal;font-weight:normal;font-stretch:normal;font-family:'Noto Serif';-inkscape-font-specification:'Noto Serif'"
         d="m 599.89398,264.96823 q 0.66406,0 1.25,-0.0781 0.60547,-0.0977 1.05469,-0.3711 0.44922,-0.27344 0.70312,-0.80078 0.27344,-0.54687 0.27344,-1.42578 l 0,-12.67578 q 0,-0.87891 -0.27344,-1.40625 -0.2539,-0.54688 -0.70312,-0.83985 -0.44922,-0.29296 -1.05469,-0.39062 -0.58594,-0.0977 -1.25,-0.0977 l -0.11719,0 0,-1.67968 7.14844,0 0,16.89453 q 0,0.9375 0.25391,1.5039 0.27344,0.56641 0.70312,0.87891 0.44922,0.29297 1.05469,0.39062 0.60547,0.0977 1.26953,0.0977 l 0.52735,0 0,1.67969 -11.36719,0 0,-1.67969 0.52734,0 z m 2.71485,-26.25 q 0,-0.70312 0.17578,-1.17187 0.17578,-0.46875 0.48828,-0.76172 0.3125,-0.29297 0.72265,-0.41016 0.41016,-0.11719 0.89844,-0.11719 0.46875,0 0.87891,0.11719 0.41015,0.11719 0.70312,0.41016 0.3125,0.29297 0.48828,0.76172 0.19532,0.46875 0.19532,1.17187 0,0.70313 -0.19532,1.17188 -0.17578,0.46875 -0.48828,0.76171 -0.29297,0.29297 -0.70312,0.42969 -0.41016,0.11719 -0.87891,0.11719 -0.48828,0 -0.89844,-0.11719 -0.41015,-0.13672 -0.72265,-0.42969 -0.3125,-0.29296 -0.48828,-0.76171 -0.17578,-0.46875 -0.17578,-1.17188 z"
         inkscape:connector-curvature="0" />
      <path
         id="path3353"
         style="font-style:normal;font-variant:normal;font-weight:normal;font-stretch:normal;font-family:'Noto Serif';-inkscape-font-specification:'Noto Serif'"
         d="m 632.29633,246.04245 q 0,0.42969 -0.13672,0.82031 -0.11719,0.3711 -0.3711,0.66406 -0.2539,0.27344 -0.66406,0.44922 -0.39062,0.15625 -0.9375,0.15625 0,-0.23437 -0.0586,-0.46875 -0.0586,-0.23437 -0.21485,-0.42968 -0.13672,-0.21485 -0.39062,-0.33204 -0.25391,-0.13671 -0.66406,-0.13671 -0.50782,0 -0.91797,0.11718 -0.41016,0.11719 -0.80078,0.3711 0.68359,0.83984 1.11328,1.99218 0.44922,1.13282 0.44922,2.85157 0,1.48437 -0.44922,2.7539 -0.44922,1.25 -1.34766,2.16797 -0.87891,0.91797 -2.24609,1.44531 -1.34766,0.50782 -3.16407,0.50782 -0.23437,0 -0.52734,0 -0.29297,-0.0195 -0.58594,-0.0195 -0.29297,-0.0195 -0.54687,-0.0391 -0.25391,-0.0391 -0.41016,-0.0586 -0.39062,0.19531 -0.74219,0.42969 -0.35156,0.23437 -0.625,0.52734 -0.2539,0.29297 -0.41015,0.66406 -0.15625,0.3711 -0.15625,0.82032 0,0.48828 0.17578,0.78125 0.19531,0.29296 0.52734,0.46875 0.33203,0.15625 0.78125,0.21484 0.46875,0.0391 0.9961,0.0391 l 4.53125,0 q 1.79687,0 3.04687,0.44922 1.25,0.44922 2.03125,1.25 0.80078,0.78125 1.15235,1.89453 0.37109,1.09375 0.37109,2.38281 0,1.71875 -0.64453,3.10547 -0.625,1.38672 -1.9336,2.34375 -1.30859,0.97657 -3.32031,1.50391 -1.99219,0.52734 -4.70703,0.52734 -4.17969,0 -6.25,-1.54297 -2.07031,-1.54296 -2.07031,-4.29687 0,-1.17188 0.41015,-2.05078 0.41016,-0.87891 1.09375,-1.50391 0.70313,-0.625 1.60157,-1.01562 0.89843,-0.39063 1.89453,-0.56641 -0.41016,-0.17578 -0.80078,-0.46875 -0.39063,-0.29297 -0.70313,-0.70312 -0.3125,-0.41016 -0.50781,-0.9375 -0.19531,-0.52735 -0.19531,-1.17188 0,-1.19141 0.625,-2.05078 0.625,-0.87891 1.99218,-1.69922 -0.85937,-0.35156 -1.54296,-0.95703 -0.66407,-0.625 -1.13282,-1.40625 -0.44922,-0.80078 -0.70312,-1.73828 -0.23438,-0.9375 -0.23438,-1.9336 0,-1.73828 0.46875,-3.10546 0.46875,-1.36719 1.40625,-2.32422 0.9375,-0.95703 2.34375,-1.46485 1.40625,-0.50781 3.30078,-0.50781 0.72266,0 1.42579,0.11719 0.70312,0.0976 1.28906,0.29297 0.60547,0.17578 1.07422,0.41015 0.48828,0.23438 0.78125,0.48828 0.29297,-0.3125 0.68359,-0.68359 0.39063,-0.39062 0.87891,-0.70312 0.48828,-0.33204 1.05468,-0.54688 0.58594,-0.21484 1.25,-0.21484 0.60547,0 1.03516,0.17578 0.44922,0.15625 0.74219,0.44922 0.29297,0.27343 0.42969,0.66406 0.15625,0.37109 0.15625,0.78125 z m -16.875,24.12109 q 0,0.87891 0.23437,1.64063 0.23438,0.76172 0.82031,1.30859 0.58594,0.54688 1.58203,0.85938 0.9961,0.3125 2.51954,0.3125 2.14843,0 3.53515,-0.3711 1.40625,-0.35156 2.22656,-0.99609 0.82032,-0.64453 1.15235,-1.54297 0.33203,-0.87891 0.33203,-1.93359 0,-0.91797 -0.27344,-1.52344 -0.2539,-0.58594 -0.78125,-0.9375 -0.50781,-0.33203 -1.26953,-0.46875 -0.76172,-0.13672 -1.75781,-0.13672 l -3.92578,0 q -0.83985,0 -1.64063,0.15625 -0.78125,0.13672 -1.40625,0.54688 -0.60547,0.41015 -0.97656,1.15234 -0.37109,0.74219 -0.37109,1.93359 z m 2.32421,-18.0664 q 0,2.55859 0.83985,3.75 0.85937,1.1914 2.79297,1.1914 0.97656,0 1.64062,-0.29297 0.6836,-0.29296 1.11328,-0.89843 0.42969,-0.60547 0.60547,-1.54297 0.19531,-0.95703 0.19531,-2.26563 0,-2.69531 -0.82031,-3.98437 -0.82031,-1.28906 -2.77344,-1.28906 -1.93359,0 -2.77343,1.32812 -0.82032,1.30859 -0.82032,4.00391 z"
         inkscape:connector-curvature="0" />
      <path
         id="path3355"
         style="font-style:normal;font-variant:normal;font-weight:normal;font-stretch:normal;font-family:'Noto Serif';-inkscape-font-specification:'Noto Serif'"
         d="m 644.30804,264.96823 0,1.67969 -10.76171,0 0,-1.67969 0.3125,0 q 0.68359,0 1.26953,-0.0977 0.60547,-0.0976 1.03515,-0.39062 0.44922,-0.3125 0.70313,-0.87891 0.27344,-0.5664 0.27344,-1.5039 l 0,-21.44532 q 0,-0.8789 -0.27344,-1.40625 -0.25391,-0.54687 -0.70313,-0.83984 -0.44922,-0.29297 -1.05468,-0.37109 -0.58594,-0.0977 -1.25,-0.0977 l -0.3125,0 0,-1.67969 7.36328,0 0,8.78907 q 0,0.54687 -0.0195,1.15234 -0.0195,0.58594 -0.0586,1.09375 -0.0391,0.58594 -0.0781,1.15234 l 0.19531,0 q 1.79687,-3.63281 5.87891,-3.63281 1.69921,0 3.00781,0.46875 1.32812,0.44922 2.22656,1.40625 0.89844,0.9375 1.36719,2.42188 0.46875,1.48437 0.46875,3.53515 l 0,9.45313 q 0,0.9375 0.23437,1.5039 0.23438,0.56641 0.64453,0.87891 0.41016,0.29297 0.97657,0.39062 0.5664,0.0977 1.23047,0.0977 l 0.11718,0 0,1.67969 -6.95312,0 0,-13.8086 q 0,-1.30859 -0.23438,-2.32421 -0.23437,-1.01563 -0.76172,-1.71875 -0.50781,-0.70313 -1.34765,-1.05469 -0.83985,-0.3711 -2.05078,-0.3711 -1.25,0 -2.16797,0.46875 -0.89844,0.44922 -1.50391,1.3086 -0.58594,0.83984 -0.8789,2.05078 -0.29297,1.19141 -0.29297,2.65625 l 0,8.4375 q 0,0.87891 0.2539,1.42578 0.27344,0.52734 0.72266,0.80078 0.44922,0.27344 1.03516,0.3711 0.60546,0.0781 1.26953,0.0781 l 0.11718,0 z"
         inkscape:connector-curvature="0" />
      <path
         id="path3357"
         style="font-style:normal;font-variant:normal;font-weight:normal;font-stretch:normal;font-family:'Noto Serif';-inkscape-font-specification:'Noto Serif'"
         d="m 668.81976,264.92917 q 0.72266,0 1.32813,-0.0781 0.60547,-0.0781 1.23047,-0.19531 l 0,1.75781 q -0.25391,0.11719 -0.66407,0.23438 -0.41015,0.11719 -0.89843,0.19531 -0.46875,0.0977 -0.9961,0.13672 -0.52734,0.0586 -0.99609,0.0586 -1.52344,0 -2.61719,-0.33203 -1.09375,-0.3125 -1.79687,-1.03515 -0.70313,-0.72266 -1.05469,-1.91407 -0.33203,-1.1914 -0.33203,-2.91015 l 0,-13.35938 -3.04688,0 0,-1.60156 q 0.72266,0 1.58203,-0.29297 0.87891,-0.29297 1.54297,-0.97656 0.6836,-0.74219 1.09375,-1.75781 0.42969,-1.03516 0.74219,-2.57813 l 1.83594,0 0,4.92188 5.23437,0 0,2.28515 -5.23437,0 0,13.47656 q 0,2.05079 0.82031,3.00782 0.83984,0.95703 2.22656,0.95703 z"
         inkscape:connector-curvature="0" />
      <path
         id="path3359"
         style="font-style:normal;font-variant:normal;font-weight:normal;font-stretch:normal;font-family:'Noto Serif';-inkscape-font-specification:'Noto Serif'"
         d="m 683.27289,246.96042 q -2.22656,0 -3.4375,1.8164 -1.19141,1.79688 -1.40625,5.27344 l 9.19922,0 q 0,-1.58203 -0.23438,-2.89062 -0.23437,-1.3086 -0.74219,-2.2461 -0.50781,-0.9375 -1.34765,-1.44531 -0.82031,-0.50781 -2.03125,-0.50781 z m 0.48828,20.07812 q -2.16797,0 -3.90625,-0.72265 -1.71875,-0.74219 -2.91016,-2.14844 -1.1914,-1.40625 -1.83593,-3.4375 -0.625,-2.05078 -0.625,-4.64844 0,-5.60547 2.30468,-8.4375 2.30469,-2.83203 6.5625,-2.83203 1.9336,0 3.47657,0.60547 1.54296,0.60547 2.61718,1.81641 1.07422,1.1914 1.64063,2.98828 0.58594,1.77734 0.58594,4.14062 l 0,1.83594 -13.32032,0 q 0.0391,2.1875 0.42969,3.76953 0.41016,1.5625 1.15234,2.57813 0.76172,1.01562 1.85547,1.5039 1.09375,0.46875 2.51953,0.46875 1.03516,0 1.91407,-0.23437 0.89843,-0.23438 1.62109,-0.625 0.72266,-0.39063 1.26953,-0.87891 0.56641,-0.50781 0.91797,-1.05469 0.27344,0.11719 0.50781,0.48828 0.25391,0.3711 0.25391,0.87891 0,0.60547 -0.42969,1.30859 -0.42969,0.6836 -1.30859,1.26954 -0.87891,0.58593 -2.20703,0.97656 -1.3086,0.39062 -3.08594,0.39062 z"
         inkscape:connector-curvature="0" />
      <path
         id="path3361"
         style="font-style:normal;font-variant:normal;font-weight:normal;font-stretch:normal;font-family:'Noto Serif';-inkscape-font-specification:'Noto Serif'"
         d="m 706.55414,266.64792 -11.54297,0 0,-1.67969 0.11719,0 q 0.68359,0 1.26953,-0.0977 0.60547,-0.0976 1.03515,-0.39062 0.44922,-0.3125 0.70313,-0.87891 0.27344,-0.5664 0.27344,-1.5039 l 0,-12.48047 q 0,-0.87891 -0.27344,-1.40625 -0.25391,-0.54688 -0.70313,-0.83985 -0.44921,-0.29296 -1.05468,-0.39062 -0.58594,-0.0977 -1.25,-0.0977 l -0.11719,0 0,-1.67968 6.15234,0 0.76172,3.96484 0.19531,0 q 0.39063,-0.89844 0.80079,-1.67969 0.41015,-0.80078 0.99609,-1.38672 0.60547,-0.60547 1.48437,-0.9375 0.87891,-0.35156 2.20704,-0.35156 2.1875,0 3.24218,0.76172 1.07422,0.76172 1.07422,2.14844 0,0.625 -0.21484,1.15234 -0.19531,0.52734 -0.64453,0.91797 -0.44922,0.37109 -1.15235,0.58594 -0.70312,0.19531 -1.71875,0.19531 0,-1.66016 -0.46875,-2.38281 -0.46875,-0.74219 -1.64062,-0.74219 -0.74219,0 -1.32813,0.42969 -0.58593,0.41015 -1.03515,1.11328 -0.42969,0.68359 -0.74219,1.58203 -0.29297,0.89844 -0.48828,1.85547 -0.17578,0.9375 -0.25391,1.875 -0.0781,0.9375 -0.0781,1.69922 l 0,6.28906 q 0,0.87891 0.2539,1.42578 0.27344,0.52734 0.72266,0.80078 0.44922,0.27344 1.03516,0.3711 0.60546,0.0781 1.26953,0.0781 l 1.11328,0 0,1.67969 z"
         inkscape:connector-curvature="0" />
    </g>
  </g>
  <g
     transform="matrix(0.39688332,0,0,0.39688332,-0.02480286,-0.02462402)"
     id="g4904">
    <path
       inkscape:connector-curvature="0"
       style="fill:url(#linearGradient3803);fill-opacity:1;fill-rule:nonzero;stroke:#000000;stroke-width:0;stroke-linecap:butt;stroke-linejoin:bevel;stroke-miterlimit:4;stroke-dasharray:none;stroke-dashoffset:0;stroke-opacity:1"
       id="rect3043"
       d="m 2.6875,0.06628035 c -2.63672,-0.08979 -2.625,1.35073995 -2.625,1.37499995 l 0,67.0937497 c 0,12.80258 0.03371,-0.20215 49.03125,32.3125 l 0,-34.5 c -2.29339,-0.45457 -4.03125,-2.47938 -4.03125,-4.90625 0,-2.76142 2.23858,-5 5,-5 l 0,-30 C 18.8125,4.5662803 7.08203,0.21592035 2.6875,0.06628035 Z" />
    <path
       inkscape:connector-curvature="0"
       style="fill:url(#linearGradient3801);fill-opacity:1;fill-rule:nonzero;stroke:#000000;stroke-width:0;stroke-linecap:butt;stroke-linejoin:bevel;stroke-miterlimit:4;stroke-dashoffset:0;stroke-opacity:1"
       id="path3814"
       d="M 97.4375,0.09753035 C 93.04297,0.24401035 81.3125,4.5662803 50.0625,26.44128 l 0,30 c 2.76142,0 5,2.23858 5,5 0,2.41625 -1.72159,4.44002 -4,4.90625 l 0,34.4375 c 48.97537,-32.47032 49,-19.46017 49,-32.3125 l 0,-67.0312497 c 0,0 0.0117,-1.43163995 -2.625,-1.34374995 z" />
  </g>
</svg>
